<?xml version="1.0" encoding="utf-8"?>
<svg version="1.1" id="Layer_1" xmlns="http://www.w3.org/2000/svg" xmlns:xlink="http://www.w3.org/1999/xlink" x="0px" y="0px"
	 viewBox="0 0 612 792" style="enable-background:new 0 0 612 792;" xml:space="preserve">
<style type="text/css">
	.hairdark{fill:#352518; }
	.skin{fill:#F6A988;}
	.lips{fill:#DB1F26;}
	.hair{fill:#3A281A;}
</style>
<g>
	<path class="hairdark long" d="M274,367.9c0,0-1.3,15.3,3.6,46.3c3.2,20.2,27.7,53.2,38.1,80.6c14.7,39,15.9,91.7,1.3,127
		c-14.5,35.3-29,66.4-24.8,114.2c0,0,2.1,37.4,33.2,54c0,0-149.6-9.1-133-118.4c0,0,21.5-95.5,18.7-122.5
		c-2.8-27-31.1-89.3-43.5-134.9c-12.5-45.7,2.1-135,24.9-172.3"/>
	<g>
		<path class="hairdark long" d="M353.9,62.8c0,28.6-24.3,51.8-54.3,51.8c-30,0-90.5,69.7-54.3-51.8c8.2-27.4,24.3-51.8,54.3-51.8
			C329.6,11,353.9,34.2,353.9,62.8z"/>
		<path class="hairdark long" d="M408.2,62.8c38.8,108.9-24.3,51.8-54.3,51.8c-30,0-54.3-23.2-54.3-51.8c0-28.6,24.3-51.8,54.3-51.8
			C383.9,11,398.6,35.8,408.2,62.8z"/>
	</g>
	<path class="skin" d="M475.8,312.3c0,83.4-86.2,151.1-135.5,151.1c-52.4,0-135.5-67.6-135.5-151.1c0-83.4,60.6-180.6,135.5-180.6
		S475.8,228.9,475.8,312.3z"/>
	<path class="lips" d="M345.8,395.5c-3.2,0.1-10.9,6.8-10.9,6.8l-2.7-2.8c-2.2-1.8-4.7-4-8.2-4c-6.9,0-20.1,9.2-20.1,9.2
		c10.8,13.3,22.2,16.7,31,16.7s21.3-1.5,31-16.7C365.9,404.7,352.6,395.3,345.8,395.5z"/>
	<g>
		<path class="hair" d="M220,304.4c0,0-32,27.1-83.8,30.7c0,0,11.2-3.6,15.7-11.4c0,0-11.2,4.5-27.3,0c0,0,34.4-2.6,28.6-47.2"/>
		<path class="hair" d="M489.9,197.6C462.9,76.7,358.1,73.9,358.1,73.9c-70.7-0.6-93.8,4-136.4,32.9c-22,14.9-52.1,39.3-65.2,95.7
			c-5.3,22.8-11.3,94.4,16.4,137.1c11.6,17.9,56.8,59.7,56.8,59.7s-0.5-1.4-1.3-3.7c2.3,4.4,3.7,7,3.7,7c-12.1-62.6-4.8-97.9-4.8-98
			c5.1-4.5,12.6-6.9,24.2-10.3C349.8,265.7,440,222,440,222s24.9,39.9,24.9,70.3c0,0,5.8,28.6,2.7,55.4c0,0,18-18,25-48
			C502.8,255.9,499.9,242.3,489.9,197.6z"/>
	</g>
	<g>
		<path class="hair long" d="M215.6,299.4C204.4,362.8,241.9,416,241.9,430c0,14-16.8,46.2-9.5,59.6c7.3,13.4,16.9,26.3,16.9,26.3
			s-24.7-19.4-25.2-28.4c-0.4-8.9,8.8-26.3,11.1-54.9c2.3-28.6-20.6-46.6-26.2-58.3"/>
		<path class="hair long" d="M440,222c0,0,25.4,70.6,12.4,159.9c-13.1,89.3-15.1,73.3-12.4,98.7c2.7,25.5,13.3,31.3,26.2,35.3
			c0,0-18.1-8.6-20.5-37.1c-1.8-20.5,11.1-69.3,14-83.4c5.5-26.5,18.2-101.6,11.5-126.4"/>
	</g>
</g>
</svg>
